<svg width="38" height="38" viewBox="0 0 38 38" fill="none" xmlns="http://www.w3.org/2000/svg">
<rect width="37.024" height="37.024" rx="10.68" fill="#F6F6F6"/>
<path d="M18.4738 14.4757C16.2627 14.4757 14.4792 16.2592 14.4792 18.4703C14.4792 20.6814 16.2627 22.4649 18.4738 22.4649C20.6849 22.4649 22.4683 20.6814 22.4683 18.4703C22.4683 16.2592 20.6849 14.4757 18.4738 14.4757ZM18.4738 21.0673C17.0449 21.0673 15.8768 19.9026 15.8768 18.4703C15.8768 17.0379 17.0414 15.8733 18.4738 15.8733C19.9061 15.8733 21.0708 17.0379 21.0708 18.4703C21.0708 19.9026 19.9026 21.0673 18.4738 21.0673ZM23.5634 14.3123C23.5634 14.8303 23.1463 15.244 22.6317 15.244C22.1137 15.244 21.7 14.8268 21.7 14.3123C21.7 13.7978 22.1172 13.3806 22.6317 13.3806C23.1463 13.3806 23.5634 13.7978 23.5634 14.3123ZM26.2091 15.2579C26.15 14.0099 25.8649 12.9043 24.9506 11.9934C24.0397 11.0826 22.9342 10.7975 21.6861 10.7349C20.3998 10.6619 16.5443 10.6619 15.2579 10.7349C14.0133 10.794 12.9078 11.0791 11.9934 11.99C11.0791 12.9008 10.7975 14.0064 10.7349 15.2545C10.6619 16.5408 10.6619 20.3963 10.7349 21.6826C10.794 22.9307 11.0791 24.0363 11.9934 24.9471C12.9078 25.858 14.0099 26.1431 15.2579 26.2056C16.5443 26.2786 20.3998 26.2786 21.6861 26.2056C22.9342 26.1465 24.0397 25.8615 24.9506 24.9471C25.8615 24.0363 26.1465 22.9307 26.2091 21.6826C26.2821 20.3963 26.2821 16.5443 26.2091 15.2579ZM24.5473 23.0628C24.2761 23.7442 23.7512 24.2692 23.0663 24.5438C22.0407 24.9506 19.6071 24.8567 18.4738 24.8567C17.3404 24.8567 14.9033 24.9471 13.8812 24.5438C13.1998 24.2727 12.6749 23.7477 12.4002 23.0628C11.9934 22.0372 12.0873 19.6036 12.0873 18.4703C12.0873 17.3369 11.9969 14.8999 12.4002 13.8777C12.6714 13.1963 13.1963 12.6714 13.8812 12.3967C14.9068 11.99 17.3404 12.0838 18.4738 12.0838C19.6071 12.0838 22.0442 11.9934 23.0663 12.3967C23.7477 12.6679 24.2727 13.1929 24.5473 13.8777C24.9541 14.9033 24.8602 17.3369 24.8602 18.4703C24.8602 19.6036 24.9541 22.0407 24.5473 23.0628Z" fill="#2A2F2F"/>
</svg>
