<svg width="38" height="38" viewBox="0 0 38 38" fill="none" xmlns="http://www.w3.org/2000/svg">
<rect width="37.024" height="37.024" rx="10.68" fill="#F6F6F6"/>
<path d="M14.8628 15.244V24.272H12.4515V15.244H14.8628ZM12.3013 12.8911C12.3013 12.5407 12.4237 12.2514 12.6684 12.0233C12.9132 11.7953 13.2414 11.6813 13.653 11.6813C14.0591 11.6813 14.3845 11.7953 14.6292 12.0233C14.8795 12.2514 15.0047 12.5407 15.0047 12.8911C15.0047 13.2415 14.8795 13.5308 14.6292 13.7588C14.3845 13.9869 14.0591 14.1009 13.653 14.1009C13.2414 14.1009 12.9132 13.9869 12.6684 13.7588C12.4237 13.5308 12.3013 13.2415 12.3013 12.8911ZM19.5434 17.1714V24.272H17.1404V15.244H19.3932L19.5434 17.1714ZM19.1929 19.4409H18.5421C18.5421 18.7734 18.6283 18.1727 18.8008 17.6387C18.9732 17.0991 19.2152 16.6402 19.5267 16.262C19.8382 15.8782 20.2081 15.5861 20.6364 15.3859C21.0703 15.1801 21.5542 15.0772 22.0882 15.0772C22.511 15.0772 22.8975 15.1383 23.248 15.2607C23.5984 15.3831 23.8988 15.5778 24.1491 15.8448C24.405 16.1118 24.5997 16.465 24.7332 16.9044C24.8722 17.3439 24.9418 17.8807 24.9418 18.5148V24.272H22.5221V18.5064C22.5221 18.1059 22.4665 17.7944 22.3552 17.5719C22.244 17.3494 22.0799 17.1937 21.8629 17.1047C21.6515 17.0101 21.3901 16.9628 21.0786 16.9628C20.756 16.9628 20.4751 17.0268 20.2359 17.1548C20.0023 17.2827 19.8076 17.4607 19.6518 17.6888C19.5016 17.9113 19.3876 18.1727 19.3097 18.4731C19.2319 18.7734 19.1929 19.0961 19.1929 19.4409Z" fill="#2A2F2F"/>
</svg>
