<svg width="38" height="38" viewBox="0 0 38 38" fill="none" xmlns="http://www.w3.org/2000/svg">
<rect width="37.024" height="37.024" rx="10.68" fill="#F6F6F6"/>
<path d="M27.3624 14.995C27.3737 15.1531 27.3737 15.3113 27.3737 15.4694C27.3737 20.2921 23.703 25.8489 16.9941 25.8489C14.9272 25.8489 13.0072 25.2503 11.3921 24.2113C11.6858 24.2451 11.9681 24.2564 12.2731 24.2564C13.9785 24.2564 15.5484 23.6804 16.8021 22.6978C15.1983 22.6639 13.8543 21.6135 13.3912 20.1678C13.6171 20.2017 13.843 20.2243 14.0802 20.2243C14.4077 20.2243 14.7353 20.1791 15.0402 20.1001C13.3686 19.7612 12.1149 18.293 12.1149 16.5197V16.4746C12.6005 16.7456 13.1653 16.9151 13.7639 16.9376C12.7813 16.2825 12.1375 15.1644 12.1375 13.8994C12.1375 13.2218 12.3182 12.6006 12.6344 12.0584C14.4303 14.2721 17.1296 15.7178 20.1565 15.876C20.1 15.6049 20.0661 15.3226 20.0661 15.0402C20.0661 13.0298 21.6926 11.3921 23.7142 11.3921C24.7646 11.3921 25.7133 11.8326 26.3797 12.5441C27.2042 12.386 27.9948 12.081 28.6951 11.6632C28.424 12.5103 27.848 13.2218 27.0913 13.6735C27.8254 13.5945 28.537 13.3912 29.192 13.1089C28.6951 13.8317 28.0739 14.4754 27.3624 14.995Z" fill="#2A2F2F"/>
</svg>
